<?xml version="1.0" encoding="utf-8"?>
<!-- Generator: Adobe Illustrator 22.0.1, SVG Export Plug-In . SVG Version: 6.00 Build 0)  -->
<svg version="1.1" id="Capa_1" xmlns="http://www.w3.org/2000/svg" xmlns:xlink="http://www.w3.org/1999/xlink" x="0px" y="0px"
	 viewBox="0 0 50 50" style="enable-background:new 0 0 50 50;" xml:space="preserve">
<style type="text/css">
	.st0{fill:#1A1A1A;}
</style>
<g>
	<path class="st0" d="M25.3,10.8c-7.6,0-13.7,6.1-13.7,13.7c0,6,4,11.4,9.7,13.1c0,0.3,0,0.6-0.1,0.8c0,0.5-0.1,0.8,0,1.2l0.2,0.8
		h7.3l0.2-0.7c0.1-0.4,0.1-0.8,0-1.3c0-0.2,0-0.5,0-0.7C34.8,36.4,39,30.9,39,24.5C39,17,32.8,10.8,25.3,10.8z M28.2,35.9
		c-1.4,0.3-1.4,1.7-1.3,2.6h-3.7c0.1-0.9,0.1-2.3-1.1-2.6c-5-1.4-8.6-6-8.6-11.3c0-6.5,5.3-11.7,11.7-11.7S37,18.1,37,24.5
		C37,30.1,33.3,34.8,28.2,35.9z"/>
	<path class="st0" d="M8.2,23.1c-1.4,0-2.9,0-4.3,0c-1,0-1,1.5,0,1.5c1.4,0,2.9,0,4.3,0C9.2,24.6,9.2,23.1,8.2,23.1z"/>
	<path class="st0" d="M13.2,14c0.7,0.7,1.7-0.4,1.1-1.1c-1.5-1.5-3.1-3.1-4.6-4.6C9,7.7,7.9,8.7,8.6,9.4
		C10.1,10.9,11.7,12.5,13.2,14z"/>
	<path class="st0" d="M26,8.2c0-1.4,0-2.8,0-4.2c0-1-1.5-1-1.5,0c0,1.4,0,2.8,0,4.2C24.5,9.2,26,9.2,26,8.2z"/>
	<path class="st0" d="M37.5,14c1.5-1.4,3-2.9,4.5-4.3C42.7,9,41.7,8,41,8.6c-1.5,1.4-3,2.9-4.5,4.3C35.8,13.6,36.8,14.7,37.5,14z"/>
	<path class="st0" d="M46.1,23.1c-1.3,0-2.6,0-3.9,0c-1,0-1,1.5,0,1.5c1.3,0,2.6,0,3.9,0C47.1,24.6,47.1,23.1,46.1,23.1z"/>
	<path class="st0" d="M27.8,42.3c-1.9,0-3.8,0-5.7,0c-1,0-1,1.5,0,1.5c1.9,0,3.8,0,5.7,0C28.7,43.8,28.7,42.3,27.8,42.3z"/>
	<path class="st0" d="M26.4,45.1c-0.9,0-1.7,0-2.6,0c-1,0-1,1.5,0,1.5c0.9,0,1.7,0,2.6,0C27.4,46.6,27.4,45.1,26.4,45.1z"/>
</g>
</svg>
