<?xml version="1.0" encoding="utf-8"?>
<!-- Generator: Adobe Illustrator 22.0.1, SVG Export Plug-In . SVG Version: 6.00 Build 0)  -->
<svg version="1.1" id="Capa_1" xmlns="http://www.w3.org/2000/svg" xmlns:xlink="http://www.w3.org/1999/xlink" x="0px" y="0px"
	 viewBox="0 0 50 50" style="enable-background:new 0 0 50 50;" xml:space="preserve">
<style type="text/css">
	.st0{fill:#1A1A1A;}
</style>
<g>
	<path class="st0" d="M26.8,26.8c0-2-1.4-2.7-3-3l-2.8-0.7c-0.5-0.1-1.2-0.3-1.2-1.2c0-1,1.1-1.4,2-1.4c2.1,0,2.2,1.2,2.3,1.7h2.3
		c0-1.4-0.9-3.6-4.4-3.6c-3.7,0-4.3,2.2-4.3,3.5c0,2.5,1.8,2.9,3.6,3.3l1.2,0.3c1.2,0.3,2,0.5,2,1.4c0,1.2-1.2,1.5-2.4,1.5
		c-2.1,0-2.4-1.2-2.4-1.8h-2.3c0,1.4,0.7,3.8,4.8,3.8C23.3,30.5,26.8,30.2,26.8,26.8z"/>
	<polygon class="st0" points="26.8,30.5 28.7,30.5 32.2,18.6 30.4,18.6 	"/>
	<rect x="31.6" y="27.9" class="st0" width="2.4" height="2.3"/>
	<path class="st0" d="M30.7,9.4l0.7-1.9c-0.4-0.2-10.4-3.6-18.7,4c-5.8,5.3-5.1,13.3-4.1,17.8l-2.9,1.3l7.6,4.8v-8.1l-2.8,1.2
		C9.6,24.4,9.1,17.5,14,13C21.4,6.2,30.3,9.3,30.7,9.4z"/>
	<path class="st0" d="M45.2,19L37.7,14l-0.1,8.1l2.8-1.2c0.8,4.2,1.1,11.1-3.8,15.5c-7.5,6.7-16.3,3.5-16.7,3.3l-0.7,1.9
		c0.2,0.1,2.8,1,6.3,1c3.6,0,8.2-1,12.4-4.7c5.9-5.2,5.4-13.2,4.4-17.7L45.2,19z"/>
</g>
</svg>
