<svg xmlns="http://www.w3.org/2000/svg" class="c-icon-svg" viewBox="0 0 35 35"><style>.c-icon-svg path{fill:#2e92af;}</style><path d="M31.4 13.4c-.2-1-1-1.6-2-1.6H5.9c-.6 0-1.1.2-1.5.6-.2.2-.4.6-.5.9H1.3v2.4H4c.9 3.3 3.5 6.1 7 7.6l-4.8 8.4 1.9 1 5-8.7c1.5.4 3.1.6 4.6.6 1.6 0 3.2-.3 4.9-.8l5 8.8 1.9-1-4.8-8.6c3.3-1.6 5.7-4.2 6.6-7.3h2.4v-2.4h-2.3zm-2.1.4c-.4 5-5.5 8.9-11.7 8.9-6.2 0-11.2-3.8-11.8-8.7v-.2h23.5z"/><path d="M27.2 15.3c-.3 3-3.8 5.3-6.7 5.3v.8c3.4 0 7.2-2.7 7.5-6v-.1h-.8zM11.6 7.5c.4 1.2-.3 1.8-.4 1.9l.4.5.4.5c.1-.1 1.5-1.3.8-3.5l-.1-.3c-.6-1.7-1-3-.3-3.4l-.7-1.1c-1.7 1.1-.9 3.3-.4 5l.3.4zM17.6 7.5c.4 1.2-.3 1.8-.4 1.9l.4.5-.4-.5.9 1.2c.1-.1 1.5-1.3.8-3.5l-.1-.3c-.6-1.7-1-3-.3-3.4l-.8-1.2c-1.7 1.1-.9 3.3-.4 5l.3.3zM23.7 7.5c.4 1.2-.3 1.8-.4 1.9l.4.5.4.5c.1-.1 1.5-1.3.8-3.5l-.1-.3c-.6-1.7-1-3-.3-3.4l-.7-1.1c-1.7 1.1-.9 3.3-.4 5l.3.4z"/></svg>