<svg class="c-icon-svg" xmlns="http://www.w3.org/2000/svg" viewBox="0 0 35 35"><style>.c-icon-svg path{fill:#2e92af;}</style><path d="M8.9 20.2c-.4 0-.7.3-.7.6v3.3c0 .3.3.6.6.6h.1c.3 0 .6-.3.6-.6v-3.3c0-.4-.3-.6-.6-.6zM26.1 20.2c-.4 0-.7.3-.7.6v3.3c0 .3.3.6.6.6h.1c.3 0 .6-.3.6-.6v-3.3c0-.4-.2-.6-.6-.6zM17.7 20.2c-.4 0-.7.3-.7.6v5.5c0 .3.3.6.6.6h.1c.3 0 .6-.3.6-.6v-5.5c0-.4-.2-.6-.6-.6zM13.9 20.8c0-.3-.3-.6-.6-.6h-.1c-.3 0-.6.3-.6.6v4.5c0 .3.3.6.6.6h.1c.2 0 .4-.1.5-.2.1-.1.1-.3.1-.4v-4.5zM22.2 20.2c-.4 0-.7.3-.7.6v4.5c0 .3.3.6.6.6h.1c.3 0 .6-.3.6-.6v-4.5c0-.4-.2-.6-.6-.6zM33 8.2H2C1 8.2.2 8.9.2 9.9v8.5c0 .9.8 1.7 1.7 1.7h31c1 0 1.8-.8 1.8-1.8V9.9c.1-1-.7-1.7-1.7-1.7zm-2.3 9.4v.7H4.2v-.7h26.5zM2.5 15.9v2.4H2V9.9h31v8.4h-.5v-2.4h-30z"/></svg>