<?xml version="1.0" encoding="utf-8"?>
<!-- Generator: Adobe Illustrator 22.0.1, SVG Export Plug-In . SVG Version: 6.00 Build 0)  -->
<svg version="1.1" id="Capa_1" xmlns="http://www.w3.org/2000/svg" xmlns:xlink="http://www.w3.org/1999/xlink" x="0px" y="0px"
	 viewBox="0 0 50 50" style="enable-background:new 0 0 50 50;" xml:space="preserve">
<style type="text/css">
	.st0{fill:#1A1A1A;}
</style>
<path class="st0" d="M44.7,19c0.6,6.4-0.7,12.4-4.6,17.6c-2.9,3.9-6.6,7-11.3,8.4c-2,0.6-4.7,0.7-6.7-0.1C12.8,41.7,6,32.4,6.3,22.1
	c0.1-3,0.1-6.1,0-9.1c0-1.2,0.3-1.9,1.5-2.4C13.2,8.4,18.7,6,24.1,3.8c0.8-0.3,2-0.3,2.8,0c5.4,2.2,10.8,4.6,16.2,6.8
	c1.2,0.5,1.7,1.2,1.6,2.4C44.6,15,44.7,17,44.7,19z M8.6,19.5C8.6,19.5,8.6,19.5,8.6,19.5c0,1,0,2.1,0,3.1c0,9.1,5.7,17.5,14.2,20.6
	c1.2,0.5,2.8,0.8,4,0.4c7.1-2.4,12.3-7.1,14.5-14.5c1.5-4.8,1.2-9.8,1-14.7c0-1.3-0.5-1.9-1.6-2.4c-4.7-1.9-9.3-4-14-5.9
	C26,5.8,25,5.7,24.4,6c-4.9,2-9.7,4-14.5,6.2c-0.6,0.3-1.1,1.2-1.2,1.8C8.5,15.8,8.6,17.7,8.6,19.5z"/>
</svg>
