<?xml version="1.0" encoding="utf-8"?>
<!-- Generator: Adobe Illustrator 22.0.1, SVG Export Plug-In . SVG Version: 6.00 Build 0)  -->
<svg version="1.1" id="Capa_1" xmlns="http://www.w3.org/2000/svg" xmlns:xlink="http://www.w3.org/1999/xlink" x="0px" y="0px"
	 viewBox="0 0 35 35" style="enable-background:new 0 0 35 35;" xml:space="preserve">
<g>
	<g>
		<path d="M25,30.8l-7.2-4.6l-7.9,3.3l2.2-8.3l-5.6-6.5l8.6-0.4l4.5-7.3l3,8l8.3,2l-6.7,5.4L25,30.8z M18,24l4.7,3l-0.4-5.7l4.3-3.6
			l-5.5-1.3l-2-5.3l-3,4.8l-5.7,0.3l3.7,4.3l-1.4,5.4L18,24z"/>
	</g>
	<g>
		<path d="M31.2,29.5L29.3,27l-3.2,0.1l1.8-2.6l-1.1-3l3,1l2.5-2l0.1,3.2l2.6,1.7l-3,1L31.2,29.5z M29.6,26.3l1.2,1.7l0.6-2l2-0.7
			l-1.7-1.2l-0.1-2.1L30,23.4l-2-0.6l0.7,2l-1.2,1.7L29.6,26.3z"/>
	</g>
	<g>
		<path d="M28.8,14L27,11.5l-3.2,0.1L25.6,9l-1.1-3l3,0.9L30,5l0.1,3.2l2.6,1.7l-3,1L28.8,14z M27.3,10.8l1.2,1.7l0.6-2l2-0.7
			l-1.7-1.2l-0.1-2.1l-1.6,1.3l-2-0.6l0.7,2l-1.2,1.7L27.3,10.8z"/>
	</g>
	<g>
		<path d="M10,12.5L8.6,9.7L5.5,9.2L7.8,7L7.3,3.9l2.8,1.5l2.8-1.4l-0.6,3.1l2.2,2.2l-3.1,0.4L10,12.5z M9.1,9l0.9,1.9L10.9,9l2-0.3
			l-1.4-1.4l0.4-2L10,6.2l-1.7-1l0.3,2L7,8.7L9.1,9z"/>
	</g>
	<g>
		<path d="M4.5,31.1l-1.4-2.8L0,27.8l2.3-2.2l-0.5-3.1L4.6,24l2.8-1.4l-0.6,3.1l2.2,2.2l-3.2,0.4L4.5,31.1z M3.6,27.6l0.9,1.9l1-1.9
			l2-0.3l-1.4-1.4l0.4-2l-1.9,0.9l-1.8-1l0.3,2l-1.5,1.4L3.6,27.6z"/>
	</g>
</g>
</svg>
