<svg class="c-icon-svg" xmlns="http://www.w3.org/2000/svg" viewBox="0 0 35 35"><style>.c-icon-svg path{fill:#2e92af;}</style><path d="M26.6 2H8.4c-.5 0-1 .4-1 1v28.5c0 .5.4 1 1 1h1.3c0 .3.3.5.6.5h1.2c.3 0 .5-.2.6-.5h11c0 .3.3.5.6.5h1.2c.3 0 .5-.2.6-.5h1.2c.5 0 1-.4 1-1V3c-.1-.5-.6-1-1.1-1zm-.8 18.1H18V3.8h7.8v16.3zM17 3.8v16.3H9.2V3.8H17zM9.2 30.7V21h16.6v9.7H9.2z"/><path d="M16.5 16.2V7.7c0-.4-.7-.4-.7 0v8.5c0 .3.7.3.7 0zM19.2 16.2V7.7c0-.4-.7-.4-.7 0v8.5c0 .3.7.3.7 0zM22.9 21.5H12.5c-.4 0-.4.7 0 .7h10.4c.4 0 .4-.7 0-.7zM14 8.1h-3.4v5.1H14V8.1zm-.5.4v1.1H11V8.5h2.5zm-1.6 1.3h.6v1.7h-.6V9.8zm-.9 3v-3h.7v1.9h1.1V9.8h.7v2.9H11z"/></svg>