<svg class="c-icon-svg" xmlns="http://www.w3.org/2000/svg" viewBox="0 0 35 35"><style>.c-icon-svg path{fill:#2e92af;}</style><path d="M27.5 30.7c-.1 1.2.9 2.2 2 2.2 1.2.1 2.2-.9 2.2-2 .1-2-1.9-5.6-1.9-5.6s-2.1 3.3-2.3 5.4zM.6 19.3h5.2V8.4H.6v10.9zm1.6-9.4h2.1v7.8H2.2V9.9zM30 9.6h-6.8V8h-3.9V6.3h2.1c.6 0 1.1-.5 1.1-1.1 0-.6-.5-1.1-1.1-1.1h-2.1v-.5c0-.9-.6-1.6-1.5-1.6-.8 0-1.5.7-1.5 1.6v.5h-2.1c-.6 0-1.1.5-1.1 1.1s.5 1.1 1.1 1.1h2.1V8h-5v1.6H6v8.8h5.4v1.2h11.7v-1.2h2.4v6h8.8V14c.1-2.5-1.8-4.4-4.3-4.4zm2.1 12.5h-4.2v-6h-7.1v1.2h-7.1v-1.2H8.4v-4.2h5.4v-1.6h7.1v1.6H30c1.2 0 2.1.9 2.1 2.1v8.1z"/></svg>