<?xml version="1.0" encoding="utf-8"?>
<!-- Generator: Adobe Illustrator 22.0.1, SVG Export Plug-In . SVG Version: 6.00 Build 0)  -->
<svg version="1.1" id="Capa_1" xmlns="http://www.w3.org/2000/svg" xmlns:xlink="http://www.w3.org/1999/xlink" x="0px" y="0px"
	 viewBox="0 0 50 50" style="enable-background:new 0 0 50 50;" xml:space="preserve">
<style type="text/css">
	.st0{fill:#1A1A1A;}
</style>
<g>
	<path class="st0" d="M46.2,33.1L46,33.8l-0.2-0.7c-0.4,0.1-3-0.1-3.9-1.1c-0.6-0.7-1.7-2.1-3.5-2.1c-3,0.1-11.2,0.2-12.8,0
		c-1.6-0.2-3.2-1.8-3.1-4.2c0.1-2,2.6-2.7,3-2.8h16.9v-1.5h-2c0.1-0.7,0-1.6-0.6-2.4c-0.4-0.5-1.1-1.1-2.5-1.2c-0.3,0-0.7,0-1.2,0
		l2.1-1.5L37.5,15l-3.8,2.7c-2.2,0-4.9,0-7.9,0c0.2-2.2,1.4-3,1.5-3.1c0.1-0.1,6.8-5.7,8.7-7c1.4-1,3.6-0.1,4,0l5.5,4.2l0.9-1.2
		l-5.6-4.3l-0.1-0.1c-0.1-0.1-3.3-1.5-5.6,0.1c-2,1.4-8.5,6.8-8.7,7c-0.1,0.1-1.8,1.3-2.1,4.3c-7,0-14.4,0.1-15.2,0.1
		c-0.3,0-1.9-0.1-2.9,0.8c-0.7,0.6-1,1.5-1,2.6l0,18.3c0.1,1.2,1,3.4,3.9,3.4l27.6,0c0,0,0.1,0,0.2,0c0.5,0,1.8-0.1,2.7-0.9
		c0.7-0.6,1-1.4,1.1-2.5c0-1.9,0-5,0-6.8c0.1,0.1,0.2,0.2,0.3,0.4c1.1,1.3,3.4,1.7,4.7,1.7c0.4,0,0.6,0,0.7-0.1l0.5-0.7L46.2,33.1z
		 M7.1,19.7c0.7-0.6,1.8-0.4,1.8-0.4l0.1,0l0.1,0c0.3,0,25.2-0.1,28.4,0c0.6,0,1.1,0.2,1.3,0.6c0.3,0.4,0.3,1.1,0.3,1.5H14.5v1.5h8
		c-0.7,0.6-1.3,1.5-1.3,2.7c0,0.4,0,0.7,0,1H6.6v-3.7h4.7v-1.5H6.6v-0.2C6.6,20.5,6.7,20,7.1,19.7z M39,39.4c0,0.6-0.2,1.1-0.6,1.4
		c-0.7,0.6-1.8,0.6-1.8,0.5H9c-2.2,0-2.4-1.8-2.4-2V28.1h14.9c0.7,1.9,2.4,3,4,3.3c2,0.3,12.6,0,13,0c0.2,0,0.4,0,0.5,0.1
		C39,32.9,39.1,37,39,39.4z"/>
	<rect x="9" y="38.3" class="st0" width="5.4" height="1.5"/>
	<path class="st0" d="M35.8,34.7h-4.5c-0.9,0-1.6,0.7-1.6,1.6v1.8c0,0.9,0.7,1.6,1.6,1.6h4.5c0.9,0,1.6-0.7,1.6-1.6v-1.8
		C37.4,35.4,36.7,34.7,35.8,34.7z M35.9,38.1c0,0.1-0.1,0.1-0.1,0.1h-4.5c-0.1,0-0.1-0.1-0.1-0.1v-1.8c0-0.1,0.1-0.1,0.1-0.1h4.5
		c0.1,0,0.1,0.1,0.1,0.1V38.1z"/>
</g>
</svg>
