<svg class="c-icon-svg" xmlns="http://www.w3.org/2000/svg" viewBox="0 0 35 35"><style>.c-icon-svg path{fill:#2e92af;}</style><path d="M28.4 31.7v-30H6.6v30H.2v1.5h34.6v-1.5h-6.4zM8.7 3.9h17.5v27.8H25V5.1H9.9v26.6H8.7V3.9zm14.9 2.8v25.1H11.4V6.7h12.2z"/><path d="M18 19.9v1h2.7c.1.1.1.2.2.3.4.4 1.1.4 1.6 0 .4-.4.4-1.1 0-1.6s-1.1-.4-1.6 0c-.1.1-.1.2-.2.3H18zM20.6 22.4c-.2.3-.3.6-.2.9.1.3.2.6.5.8.2.2.5.2.7.2.4 0 .8-.2 1-.5.4-.6.3-1.4-.3-1.8-.5-.3-1.3-.1-1.7.4zm1.3.9c-.1.1-.3.1-.4.1-.1-.1-.2-.3-.1-.4.1-.1.1-.1.2-.1s.1 0 .2.1.1.2.1.3zM16.3 14c.4.3.8.4 1.2.4h.3c.5-.1 1-.4 1.3-.8.7-.9.5-2.2-.5-2.9-.4-.3-1-.4-1.5-.4-.5.1-1 .4-1.3.8-.6 1-.4 2.2.5 2.9zm.3-2.3c.2-.2.4-.4.7-.4h.2c.2 0 .4.1.6.2.5.3.6 1 .2 1.5-.2.2-.4.4-.7.4-.3 0-.6 0-.8-.2-.4-.3-.5-1-.2-1.5z"/></svg>