<?xml version="1.0" encoding="utf-8"?>
<!-- Generator: Adobe Illustrator 22.0.1, SVG Export Plug-In . SVG Version: 6.00 Build 0)  -->
<svg version="1.1" id="Capa_1" xmlns="http://www.w3.org/2000/svg" xmlns:xlink="http://www.w3.org/1999/xlink" x="0px" y="0px"
	 viewBox="0 0 50 50" style="enable-background:new 0 0 50 50;" xml:space="preserve">
<style type="text/css">
	.st0{fill:#1A1A1A;}
</style>
<g>
	<path class="st0" d="M44.9,36.6V12.1c0-1.2-1-2.2-2.2-2.2H8.9c-1.2,0-2.2,1-2.2,2.2v24.4H2.7v1.5l2.2,1.4h40.7l2.4-1.7v-1.3H44.9z
		 M8.2,12.1c0-0.4,0.3-0.7,0.7-0.7h33.7c0.4,0,0.7,0.3,0.7,0.7v24.4H8.2V12.1z"/>
	<path class="st0" d="M24.7,14.3L23,18.2h-1.3L19.6,13h-5v1h4.3l1.7,4.3h-3.6l3.7,9.6h11.7l3.3-9.6H33L24.7,14.3z M25.3,15.7
		l5.4,2.6h-6.5L25.3,15.7z M31.7,26.8H21.4l-2.9-7.6h15.8L31.7,26.8z"/>
	<rect x="21.8" y="20.3" class="st0" width="10.3" height="1"/>
	<rect x="21.4" y="22.9" class="st0" width="6.8" height="1"/>
	<path class="st0" d="M22.6,28.7c-1.5,0-2.7,1.2-2.7,2.7c0,1.5,1.2,2.7,2.7,2.7s2.7-1.2,2.7-2.7C25.3,30,24.1,28.7,22.6,28.7z
		 M22.6,33.1c-0.9,0-1.7-0.8-1.7-1.7c0-0.9,0.8-1.7,1.7-1.7s1.7,0.8,1.7,1.7C24.3,32.4,23.5,33.1,22.6,33.1z"/>
	<path class="st0" d="M30.3,28.7c-1.5,0-2.7,1.2-2.7,2.7c0,1.5,1.2,2.7,2.7,2.7s2.7-1.2,2.7-2.7C33,30,31.8,28.7,30.3,28.7z
		 M30.3,33.1c-0.9,0-1.7-0.8-1.7-1.7c0-0.9,0.8-1.7,1.7-1.7s1.7,0.8,1.7,1.7C32,32.4,31.3,33.1,30.3,33.1z"/>
</g>
</svg>
