<?xml version="1.0" encoding="utf-8"?>
<!-- Generator: Adobe Illustrator 22.0.1, SVG Export Plug-In . SVG Version: 6.00 Build 0)  -->
<svg version="1.1" id="Capa_1" xmlns="http://www.w3.org/2000/svg" xmlns:xlink="http://www.w3.org/1999/xlink" x="0px" y="0px"
	 viewBox="0 0 50 50" style="enable-background:new 0 0 50 50;" xml:space="preserve">
<style type="text/css">
	.st0{fill:#1A1A1A;}
</style>
<path class="st0" d="M44.1,39.3c-2.2-3.6-5.3-5.4-6.9-5.5c-0.9-0.1-1.4-0.7-1.5-0.7L30.7,28l1.7-1.7l-1.7-1.7l3.9-3.9
	c1.4,0.5,5.6,1.8,8.1-0.3c2.9-2.5,2.6-9.2,2.6-9.5l-0.2-3.1L44,10.7c-1.1,2.6-3.4,4.4-5,4.6c-1.4,0.2-2.7-0.9-4.6-3.7
	c-1-1.5,2.5-4.9,4.4-6.4l1.1-0.8l-1.3-0.4c-0.2-0.1-4.8-1.3-8,2.2c-2.7,3-1.8,7.6-1.4,9l-3.3,3.4C23.3,16.3,13.8,6.6,12.1,5.2
	C9.8,3.4,7.4,3.6,5.3,5.8c-1.8,1.9-0.8,4.4,0,5.5l13.8,13.9L15,29.4c-1.5-1-4.2-1.9-6.7-0.1c-3.5,2.4-3.9,8-3.9,8.2l-0.1,1.6l1.2-1
	c0,0,2.4-1.9,3.6-3c0.4-0.4,1.4-0.7,2.5-0.5c1.1,0.2,2.6,0.8,3.9,2.8c0.9,1.3,0.5,2.9-0.9,4.6c-1.2,1.4-2.7,2.4-2.7,2.4l-2.1,1.3
	l2.5-0.1c3.6-0.1,6.2-1.2,8.2-3.6c1.4-1.7,0.6-6.2,0.3-7.6l3.8-3.7l1.8,1.7l1.9-1.9c1.2,1.3,4.1,4.4,5.2,5.1
	c0.3,0.2,0.4,0.4,0.5,0.9c0.2,0.8,0.5,1.9,2,3.9c2.9,3.7,5.7,4.9,7.6,5.2c0.2,0,0.4,0,0.5,0c0.9,0,1.3-0.4,1.5-0.7
	C46.4,43.6,45.2,41.2,44.1,39.3z M6.4,10.4c-0.1-0.1-1.5-2.1-0.1-3.6C7.9,5.1,9.5,5,11.2,6.3c1.7,1.3,11.2,11,13.4,13.3l-4.5,4.5
	L6.4,10.4z M19.2,34.1l0.1,0.4c0.5,2.1,0.9,5.7,0.1,6.8c-0.9,1-2.2,2.3-4.8,2.8c1.1-1.1,2.4-2.6,2.8-4.2c0.2-1.1,0-2.2-0.6-3.2
	c-1.3-1.9-3-3.1-4.9-3.4c-0.3,0-0.5-0.1-0.8-0.1c-1.1,0-2.1,0.3-2.8,0.9c-0.6,0.5-1.5,1.2-2.2,1.8c0.4-1.7,1.2-4.1,3-5.4
	c2.8-1.9,5.4,0.3,5.5,0.4l0.5,0.4l15.5-15.6l-0.1-0.4c0-0.1-1.6-5.1,1-8c1.7-1.8,3.8-2.1,5.1-2c-1.9,1.7-5,5-3.4,7.2
	c1.6,2.4,3.5,4.6,6,4.3c1.6-0.2,3.4-1.5,4.7-3.1c-0.2,2.1-0.7,4.7-2,5.8c-2.3,1.9-7.1-0.1-7.1-0.1l-0.4-0.2L19.2,34.1z M26.3,30.5
	l-0.8-0.7l4.2-4.2l0.7,0.7L26.3,30.5z M44.3,44.2c-0.1,0.2-0.5,0.1-0.7,0.1C42,44,39.6,43,36.9,39.6c-1.3-1.7-1.6-2.7-1.7-3.4
	c-0.1-0.6-0.3-1.2-1-1.7c-0.9-0.6-3.6-3.5-5-5l0.5-0.5l5.1,5.1c0,0,0.9,1,2.4,1.1c0.8,0.1,3.6,1.3,5.8,4.8
	C44.5,42.6,44.5,43.9,44.3,44.2z"/>
</svg>
