<?xml version="1.0" encoding="utf-8"?>
<!-- Generator: Adobe Illustrator 22.0.1, SVG Export Plug-In . SVG Version: 6.00 Build 0)  -->
<svg version="1.1" id="Capa_1" xmlns="http://www.w3.org/2000/svg" xmlns:xlink="http://www.w3.org/1999/xlink" x="0px" y="0px"
	 viewBox="0 0 50 50" style="enable-background:new 0 0 50 50;" xml:space="preserve">
<style type="text/css">
	.st0{fill:#1A1A1A;}
</style>
<g>
	<path class="st0" d="M20.2,30.5V20l1-1.9l7.3-0.6V5.8H19L8.4,16.2v17.3L18,44.2h11.9V32.1h-8.8L20.2,30.5z M27.9,42.2h-9l-8.5-9.5
		V17l9.4-9.3h6.7v7.9l-6.6,0.5l-1.7,3.3v11.5l1.8,3.1h8V42.2z"/>
	<path class="st0" d="M31.9,20.5L30.6,22c0.1,0.1,2.8,2.7-0.2,7l1.6,1.1C36.1,24.3,31.9,20.5,31.9,20.5z"/>
	<path class="st0" d="M35.8,16.4l-1.3,1.5c0,0,3.4,3.2,3.5,7.4c0,2.5-1.1,4.9-3.5,7.2l1.4,1.4c2.8-2.6,4.1-5.5,4.1-8.6
		C39.8,20.2,35.9,16.6,35.8,16.4z"/>
	<path class="st0" d="M45.3,24.3c-0.4-7.2-5.6-11.8-5.8-12l-1.3,1.5c0.5,0.4,11.4,10.5-0.1,23.4l1.5,1.3
		C43.7,33.9,45.6,29.1,45.3,24.3z"/>
</g>
</svg>
