<svg id="Capa_1" class="c-icon-svg" xmlns="http://www.w3.org/2000/svg" viewBox="0 0 35 35"><style>.c-icon-svg path{fill:#2e92af;}.c-icon-svg .st0{fill:none;}</style><path class="st0" d="M15.4 25.5l-.7 1.1h6.7l-.7-1.1zM7.3 21.7l-1 1.6h22.4l-1-1.6zM27.6 8.6H6.9V19h20.7V8.6zm-7.2 8.2l-.6.4-.8-1.8-1.2.8v-3.8l3.2 2-1.5.6.9 1.8z"/><path class="st0" d="M28 20.6H6.4l-3.3 6.5H14l.8-1.2.6-1h5l.6 1 .8 1.2h9.9l-3.3-6.5H28zM4.9 24.4l1.6-3.3h21.9l1.6 3.3H4.9z"/><path fill="none" stroke="#000" stroke-width="0" stroke-linecap="round" stroke-linejoin="round" d="M5.3 7v-.2"/><path d="M29.7 20.2V7H5.3v13.6h.1L2 26.8v1.4h31v-1.4l-3.3-6.6zM6.9 8.6h20.7V19H6.9V8.6zM22 27.1H3.2l3.3-6.5h22.1l3.3 6.5H22z"/><path d="M20.5 24.9h-5l-.6 1-.8 1.2H22l-.8-1.2-.7-1zm-5.8 1.7l.7-1.1h5.2l.7 1.1h-6.6zM6.5 21.1l-1.6 3.3h25.2l-1.6-3.3h-22zm-.2 2.2l.9-1.6h20.5l.9 1.6H6.3zM17.8 12.4v3.8l1.2-.8.8 1.8.6-.4-.9-1.8 1.4-.6z"/></svg>